<svg xmlns="http://www.w3.org/2000/svg" viewBox="0 0 287.5 87.05"><title>Corendon Airlines logo - Brandlogos.net</title><path d="M311.11,358.4h.1c5.07-.56,10.1-5.08,9.3-10.47a8.74,8.74,0,0,0-9.91-7.37c-2.72.36-5.93,2-7.31,4.49a10.76,10.76,0,0,0-1,7.42c.86,4.14,4.81,6.05,8.79,5.94" transform="translate(-240.25 -340.48)" style="fill:#d51317"/><path d="M251.68,381.42c.57-5-3.11-7.35-6.54-8.22-3-.73-5.47-1.08-4.76-3.41l.11-.24c1.09-2.31,3.79-3.52,7.4-4.48l1.55-.39c3.41-.78,7.41-1.08,11.29-1.77a32.77,32.77,0,0,0,4.94-1.22c3.59-1.57,5.9-5,7.36-8.56a27.66,27.66,0,0,0,1.43-4.24,30.82,30.82,0,0,1,1.6-5.34,3.91,3.91,0,0,1,3-2.26c2.87-.32,4,2.81,4.95,7.34,1.06,5.21.91,12.53,3.44,17,1.36,1.82,3.93,2.48,7,2.47A45.52,45.52,0,0,0,306.45,366c4.87-1.45,9.13-2.75,11.82-2.51a3.1,3.1,0,0,1,2.89,1.85,2.71,2.71,0,0,1,.17,1c-.58,2.82-5.47,6.11-11.75,9.91-7.91,4.76-17.92,9-22,13.89a6.72,6.72,0,0,0-1.28,3.05c-1.14,4.77,2.76,11,7.21,16.1,4.28,4.85,8.25,9,8.08,11.71a2.66,2.66,0,0,1-1.18,1.43A4,4,0,0,1,298,423c-3.56-.12-8.83-3.49-14.65-7.76-7.3-5.36-14.18-12.66-19.68-14.91a5.27,5.27,0,0,0-1.51-.27c-4.06-.13-7.62,4.74-9.88,9.5-2.06,4.39-3.57,8.18-5.33,7.85a2.08,2.08,0,0,1-1.09-.74c-1-1.11-1.29-3-1.2-5.51a55.31,55.31,0,0,1,1.34-8.53c1.32-6,3.79-12.51,5-17.82a30.41,30.41,0,0,0,.64-3.4" transform="translate(-240.25 -340.48)" style="fill:#d51317"/><path d="M499.48,410.7h10.13l3.18-22.41a5.87,5.87,0,0,1,2.1-.36c1.55,0,2.94.66,2.63,2.88l-2.82,19.9h10.07l2.82-20c1.2-8.57-4.74-11.69-12.23-11.69a29.7,29.7,0,0,0-11.75,2.52ZM486.83,388c1.2,0,2.58.84,2.4,2.28l-1.38,10.13a2.85,2.85,0,0,1-3.06,2.34,2.15,2.15,0,0,1-2.33-2.34l1.38-10.13a3,3,0,0,1,3-2.28m-14.32,12.28c-1,7.25,4.8,11,11.08,11s13.25-3.65,14.27-11l1.38-9.82c1.08-7.67-4.74-11.39-11-11.45S475,382.83,473.89,390.5Zm-13.67,2.82a6.68,6.68,0,0,1-1.92.3c-1.68,0-3.29-.72-3-2.52l1.55-10.79a3.43,3.43,0,0,1,3.66-2.7,4.36,4.36,0,0,1,1.92.36Zm15.1-34.88H463.76l-1.56,11.39a12.67,12.67,0,0,0-4-.6c-6,0-11.81,3.47-12.77,10.43l-1.5,10.6c-1.2,8.45,4.56,11.21,11.1,11.21a39.31,39.31,0,0,0,13.18-2.64ZM414.2,410.7h10.13l3.18-22.41a5.87,5.87,0,0,1,2.1-.36c1.56,0,2.94.66,2.64,2.88l-2.82,19.9h10.07l2.82-20c1.2-8.57-4.74-11.69-12.23-11.69a29.71,29.71,0,0,0-11.75,2.52Zm-14.45-20.56a3.38,3.38,0,0,1,3.36-2.76,2.3,2.3,0,0,1,2.4,2.88c-.36,3.12-3.72,3.9-6.17,2.82Zm-1.38,8.93c7.19,1.61,15.17-1.32,16.24-8.63,1.14-7.61-3.9-11.39-10.31-11.39s-13.31,4.07-14.39,11.87l-1.26,8.87c-1.08,7.55,4.8,11.51,11,11.51a15.8,15.8,0,0,0,12.17-5L407,401.35c-2.88,2.7-9.29,2.4-8.63-2.27m-13.73-20c-7.49,0-13.06,3.65-14.2,12.1l-2.7,19.54h10.13l2.7-19.42c.48-3.42,5.28-4,8-3l1.2-8.45a19.46,19.46,0,0,0-5.09-.78m-29.43,9a2.2,2.2,0,0,1,2.4,2.28l-1.38,10.13a2.85,2.85,0,0,1-3.06,2.34,2.15,2.15,0,0,1-2.34-2.34l1.38-10.13a3,3,0,0,1,3-2.28m-14.33,12.28c-1,7.25,4.8,11,11.09,11s13.25-3.65,14.27-11l1.38-9.82c1.08-7.67-4.73-11.39-11-11.45s-13.24,3.77-14.32,11.45Zm-10.67-.12a4.2,4.2,0,0,1-3.78,2.58,2.26,2.26,0,0,1-2.4-2.64l1.44-9.95a3.1,3.1,0,0,1,3.18-2.64,2.61,2.61,0,0,1,2.64,2.64l8.87-2.64c-.9-6.65-6.11-8.51-10.31-8.51-6.29,0-13.19,3.17-14.27,10.79L314.16,400c-1.08,7.55,4.85,11.33,11.15,11.33a14.75,14.75,0,0,0,13.37-9.11Z" transform="translate(-240.25 -340.48)" style="fill:#d51317"/><path d="M516.92,418.35c.26-1.28,1.69-1.81,3.09-1.81s2.56.49,2.88,1.62l1.38-.59c-.5-1.69-2.27-2.48-4.06-2.48-2.08,0-4.29,1.08-4.71,3.19-.32,2.43,1.64,3.06,3.54,3.45,1.66.34,3.21.68,2.82,2.42-.27,1.32-1.78,1.93-3.21,1.93a2.91,2.91,0,0,1-3-1.74l-1.4.6a4.07,4.07,0,0,0,4.13,2.58c2.15,0,4.41-1.08,4.84-3.29.58-3-1.67-3.43-3.7-3.84-1.55-.31-3-.6-2.67-2M502,416.71h6.32l.2-1.43h-7.75l-1.69,12.08h7.75l.19-1.43h-6.32l.55-3.89H507l.2-1.43h-5.82Zm-12.55,8.68-4.81-10.12h-1.53l-1.69,12.08h1.43l1.35-9.69,4.68,9.69h1.72l1.69-12.08h-1.43Zm-14.85-10.12h-1.41l-1.69,12.08h1.42Zm-17.76,12.08H464l.19-1.43h-5.8l1.5-10.65H458.5Zm-14.18-6.26.61-4.39h3.19c1.57,0,2.61.51,2.37,2.18s-1.35,2.2-3,2.2Zm4.9,6.26h1.75l-3.2-4.95c2.08-.1,3.82-1.11,4.16-3.52.31-2.57-1.29-3.61-3.62-3.61H442l-1.69,12.08h1.43l.68-4.93h1.86Zm-14-12.08h-1.41l-1.69,12.08h1.41Zm-13,6.77h-3.69c.9-1.81,1.72-3.46,2.58-5.24Zm0-6.77h-1.74l-6,12.08h1.52l1.89-3.87h4.66l.87,3.87h1.5Z" transform="translate(-240.25 -340.48)" style="fill:#d51317"/></svg>