<svg id="cargo" xmlns="http://www.w3.org/2000/svg" viewBox="0 0 265.39 53.29"><defs><style>.cls-1{fill:#00395f;}.cls-2{fill:#123660;}.cls-3{fill:#c30a2b;}</style></defs><title>martinair-logo</title><polygon class="cls-1" points="80.67 30.8 80.67 0 94.21 0 99.12 21.82 99.21 21.82 104.25 0 117.61 0 117.61 30.8 109.94 30.8 109.94 5.64 109.85 5.55 102.81 30.8 94.98 30.8 88.36 5.35 88.27 5.43 88.27 30.8 80.67 30.8 80.67 30.8"/><path class="cls-1" d="M141.93,30.8h-7.25V28h-.08A7.22,7.22,0,0,1,128,31.42c-4.93,0-7.5-2.67-7.42-7,.08-5.08,4.72-7.16,11.52-7.16h2.49c0-1.83.41-4.5-2.74-4.37-1.91.08-2.53,2-2.49,3.2h-7.41a5.68,5.68,0,0,1,3.6-5.62,17.63,17.63,0,0,1,7.17-1.25c4.23,0,9.33,1.79,9.24,6.5v15Zm-11.06-4c3.4,0,3.69-3.21,3.69-6-1.66,0-3.23-.09-4.31.46a3,3,0,0,0-2.08,2.79,2.74,2.74,0,0,0,2.7,2.75Z"/><path class="cls-1" d="M235.78,30.8h-7.25V28h-.09a7.2,7.2,0,0,1-6.63,3.46c-4.93,0-7.5-2.67-7.41-7,.08-5.08,4.72-7.16,11.52-7.16h2.48c0-1.83.42-4.5-2.73-4.37-1.91.08-2.53,2-2.49,3.2h-7.41a5.66,5.66,0,0,1,3.6-5.62,17.6,17.6,0,0,1,7.17-1.25c4.22,0,9.32,1.79,9.24,6.5v15Zm-11.07-4c3.4,0,3.69-3.21,3.69-6-1.66,0-3.23-.09-4.31.46A3,3,0,0,0,222,24.09a2.73,2.73,0,0,0,2.69,2.75Z"/><path class="cls-2" d="M145.48,9.89h7.73v4.2l.08.15c.91-3.46,3.48-4.77,7-4.69v6.71c-.58,0-1.11,0-1.65,0-4.11,0-5.51,2.49-5.39,6.49V30.8h-7.73V9.89Z"/><path class="cls-1" d="M250.65,9.89h7.73v4.2l.08.15c.92-3.46,3.48-4.77,6.93-4.69v6.71c-.54,0-1.08,0-1.62,0-4.1,0-5.51,2.49-5.39,6.49V30.8h-7.73V9.89Z"/><path class="cls-1" d="M145.48,9.89h7.73v4.2l.08.15c.91-3.46,3.48-4.77,6.93-4.69v6.71c-.55,0-1.08,0-1.62,0-4.11,0-5.51,2.49-5.39,6.49V30.8h-7.73V9.89Z"/><path class="cls-1" d="M162.66,5.52l7.59-3V9.89h4.55v5h-4.55v8.29c0,.54-.34,3.25,1.49,3.25a24.43,24.43,0,0,0,3-.12v4.5a22.69,22.69,0,0,1-3.93.62c-5.35,0-8.58-.75-8.17-7.17V5.52Z"/><path class="cls-1" d="M178.33,30.8V9.89h7.87V30.8Zm0-25.22V0h8V5.58Z"/><path class="cls-1" d="M189.8,9.89h7.73v2.29A7.91,7.91,0,0,1,204,9.26c4.47,0,7.79,2.92,7.79,7.54v14H204V18.51c-.08-2-.58-4.25-3-4.25-3.9,0-3.4,4.29-3.4,4.54v12H189.8V9.89Z"/><path class="cls-1" d="M239.35,30.8V9.89h7.88V30.8Zm0-25.22V0h8V5.58Z"/><path class="cls-3" d="M0,30.8,18.44,53.29H32L13.54,30.8,38.78,0H29.66a9.3,9.3,0,0,0-7.18,3.38L0,30.8Z"/><path class="cls-3" d="M32,30.8,57.26,0H48.13A9.28,9.28,0,0,0,41,3.38L18.47,30.8Z"/><path class="cls-3" d="M50.48,30.8,75.73,0H66.6a9.29,9.29,0,0,0-7.17,3.38L36.94,30.8Z"/></svg>